<?xml version="1.0" standalone="no"?>
<!DOCTYPE svg PUBLIC "-//W3C//DTD SVG 20010904//EN"
 "http://www.w3.org/TR/2001/REC-SVG-20010904/DTD/svg10.dtd">
<svg version="1.0" xmlns="http://www.w3.org/2000/svg"
 width="261.000000pt" height="261.000000pt" viewBox="0 0 261.000000 261.000000"
 preserveAspectRatio="xMidYMid meet">
<metadata>
Created by potrace 1.14, written by Peter Selinger 2001-2017
</metadata>
<g transform="translate(0.000000,261.000000) scale(0.100000,-0.100000)"
fill="#000000" stroke="none">
<path d="M849 2583 c-35 -22 -55 -58 -62 -116 -4 -26 -14 -58 -22 -71 -20 -30
-73 -56 -117 -56 -68 -1 -118 -55 -118 -128 0 -80 51 -132 130 -132 81 0 123
43 133 138 3 23 13 54 22 68 33 50 47 52 505 50 408 -1 426 -2 452 -21 52 -39
63 -104 26 -163 -22 -36 -85 -71 -126 -72 -34 0 -78 -29 -92 -58 -6 -14 -13
-46 -16 -70 -8 -82 -48 -122 -127 -127 -60 -4 -94 -23 -114 -64 -16 -32 -19
-61 -18 -197 1 -176 -6 -209 -55 -238 -16 -9 -40 -16 -55 -16 -53 0 -100 -21
-123 -55 -21 -30 -23 -44 -25 -214 l-3 -181 -30 -31 c-24 -24 -43 -32 -91 -39
-34 -4 -70 -13 -82 -19 -29 -16 -54 -69 -53 -109 2 -39 -16 -78 -48 -107 -31
-28 -115 -30 -152 -3 -58 40 -56 16 -56 740 0 665 0 667 -21 702 -43 69 -151
75 -208 12 l-32 -35 -1 -671 c0 -737 -2 -717 59 -753 16 -9 48 -18 71 -19 77
-3 129 -56 130 -133 1 -74 52 -125 125 -125 22 0 51 -6 65 -13 37 -19 70 -74
70 -119 0 -53 22 -92 64 -112 30 -14 86 -16 458 -16 401 0 425 1 455 20 38 23
54 50 59 102 8 81 49 125 125 134 87 11 130 52 131 125 2 90 -60 146 -150 136
-65 -7 -101 -46 -108 -117 -6 -65 -28 -105 -69 -124 -45 -21 -857 -20 -898 1
-71 36 -88 136 -33 199 26 29 39 35 86 40 64 7 105 26 121 55 6 12 15 48 19
81 12 85 45 117 128 124 57 6 93 25 114 61 13 23 16 60 18 203 1 186 5 203 53
234 12 8 46 17 74 20 114 11 130 43 132 269 1 137 4 172 17 193 21 32 64 54
104 54 17 0 45 6 63 14 51 21 71 60 76 152 0 11 14 35 30 53 55 62 160 53 202
-16 22 -35 22 -36 22 -702 0 -422 3 -673 10 -686 29 -59 82 -84 151 -71 38 7
67 29 86 65 16 31 18 1341 2 1382 -16 40 -61 67 -120 72 -87 8 -119 42 -128
135 -2 23 -8 51 -14 63 -17 31 -71 59 -115 59 -44 0 -98 28 -114 59 -6 10 -13
43 -15 72 -5 57 -28 96 -67 116 -18 10 -132 13 -454 13 -380 -1 -433 -2 -456
-17z"/>
</g>
</svg>
